<svg xmlns="http://www.w3.org/2000/svg" xmlns:svg="http://www.w3.org/2000/svg" id="svg5" width="99.779" height="98.272" version="1.1" viewBox="0 0 26.4 26.001"><g id="layer1" transform="translate(-113.51105,-128.48206)"><path style="fill:#000;stroke-width:1.02388" id="path21"/><path style="fill:#000;stroke-width:.271737" id="path3317"/><g id="g880" transform="matrix(0.56975915,0,0,0.56975915,63.360109,62.438369)"><rect style="fill:#f1bc8a;fill-opacity:1;stroke-width:.0943025" id="rect5331-6-3-1-7" width="20.722" height="5.806" x="-147.613" y="69.867" transform="matrix(-0.87679283,-0.48086831,0,1,0,0)"/><rect style="fill:#f1bc8a;fill-opacity:1;stroke-width:.0943025" id="rect5331-6-3-1" width="20.722" height="5.806" x="-147.613" y="59.791" transform="matrix(-0.87679283,-0.48086831,0,1,0,0)"/><rect style="fill:#eba059;fill-opacity:1;stroke-width:.0942989" id="rect5331-6-4" width="20.798" height="5.843" x="126.818" y="201.762" transform="matrix(0.87677457,-0.48090161,0,1,0,0)"/><rect style="fill:#f1bc8a;fill-opacity:1;stroke-width:.0943025" id="rect5331-6-3-1-3" width="20.8" height="5.843" x="-126.815" y="79.793" transform="matrix(-0.87679283,-0.48086831,0,1,0,0)"/><rect style="fill:#eba059;fill-opacity:1;stroke-width:.0944389" id="rect5331-6-3" width="20.86" height="5.843" x="105.922" y="181.56" transform="matrix(0.87755288,-0.47947986,0,1,0,0)"/><rect style="fill:#eba059;fill-opacity:1;stroke-width:.0942989" id="rect5331-6-4-9" width="20.798" height="5.843" x="126.818" y="211.838" transform="matrix(0.87677457,-0.48090161,0,1,0,0)"/><rect style="fill:#f1bc8a;fill-opacity:1;stroke-width:.0943025" id="rect5331-6-3-1-3-1" width="20.8" height="5.843" x="-126.815" y="89.87" transform="matrix(-0.87679283,-0.48086831,0,1,0,0)"/><rect style="fill:#eba059;fill-opacity:1;stroke-width:.0944389" id="rect5331-6-3-2" width="20.86" height="5.843" x="105.922" y="191.636" transform="matrix(0.87755288,-0.47947986,0,1,0,0)"/></g></g></svg>